<?xml version="1.0" encoding="UTF-8"?>
<svg id="Layer_1" data-name="Layer 1" xmlns="http://www.w3.org/2000/svg" viewBox="0 0 120.27 116.86">
  <defs>
    <style>
      .cls-1 {
        fill: #f9f8f3;
        stroke-width: 0px;
      }
    </style>
  </defs>
  <path class="cls-1" d="m109.97,43.6c-4.34-3.12-8.82-6.04-13.36-8.87-7.24-4.53-13.8-9.74-18.75-16.83-2.26-3.23-4.73-6.32-7.33-9.29-3.82-4.36-8.45-7.63-14.35-8.3-8.69-.98-17.09.39-24.85,4.49-8.54,4.51-15.67,10.76-21.23,18.68C.51,37.16-2.65,52.07,2.35,68.24c4.67,15.08,13.68,27.14,26.58,36.21,11.24,7.91,23.74,12.23,34.73,12.42,9.01,0,13.85-.76,19.36-2.69,19.92-6.96,35.07-27.01,37.05-46.14,1.03-9.99-1.73-18.41-10.09-24.44Zm-27.76,54.43h-6.74v-20.84h-19.25v20.84h-6.73v-34.8c-2.18,1.28-4.68,1.92-7.48,1.92-3.88,0-7.07-1.15-9.6-3.44-2.48-2.29-4.03-5.52-4.65-9.68l6.82-1.5c.31,2.62.85,4.43,1.61,5.43,1.39,1.93,3.41,2.89,6.07,2.89,2.1,0,3.85-.7,5.23-2.11,1.39-1.41,2.08-3.19,2.08-5.35,0-.86-.12-1.66-.36-2.38-.24-.73-.62-1.39-1.13-2s-1.17-1.17-1.98-1.7c-.81-.53-1.78-1.04-2.89-1.51l-4.31-1.8c-6.11-2.58-9.16-6.36-9.16-11.33,0-2.55.73-4.77,2.22-6.69.46-.6,1.01-1.18,1.62-1.72,2.57-2.27,5.75-3.41,9.57-3.41,5.14,0,9.16,2.5,12.05,7.51l-5.47,3.24c-1.02-1.78-1.99-2.93-2.92-3.47-.96-.62-2.2-.92-3.72-.92-1.87,0-3.42.53-4.65,1.59-.48.4-.87.84-1.16,1.32-.46.77-.69,1.64-.69,2.6,0,2.18,1.62,3.93,4.86,5.26l4.45,1.82c3.62,1.46,6.26,3.25,7.94,5.37,3.57,4.48,2.37,10.91,2.37,16.28v11.42h19.25v-17.45h6.74v44.62Z"/>
</svg>